{"title":"The Man From U.N.C.L.E 2015 Movies RU HDCam XviD New +Sample â˜»rD","uid":12238100,"size":739441278,"categoryP":"video","categoryS":"movies","magnet":"?xt=urn:btih:ecc0b5ee906a33571ad44f0a429bd8f8e8a50179&amp;dn=The+Man+From+U.N.C.L.E+2015+Movies+RU+HDCam+XviD+New+%2BSample+%E2%98%BBrD&amp;tr=udp%3A%2F%2Ftracker.openbittorrent.com%3A80&amp;tr=udp%3A%2F%2Fopen.demonii.com%3A1337&amp;tr=udp%3A%2F%2Ftracker.coppersurfer.tk%3A6969&amp;tr=udp%3A%2F%2Fexodus.desync.com%3A6969","seeders":6,"leechers":0,"uploader":"basicssom","files":2,"time":1439705738,"description":"----------------------------------------------------------------\nThe Man From U.N.C.L.E 2015 Movies RU HDCam XviD AAC New Source with Sample ~ â˜»rDXâ˜»\n\nSCREEN SHOTS &amp; POSTER:\n &lt;a href=&quot;\nhttp://imagehosting4u.com/2015/8/TheManFrom/11.html&quot; rel=&quot;nofollow&quot; target=&quot;_NEW&quot;&gt;\nhttp://imagehosting4u.com/2015/8/TheManFrom/11.html&lt;/a&gt; &lt;a href=&quot;\nhttp://imagehosting4u.com/2015/8/TheManFrom/1.html&quot; rel=&quot;nofollow&quot; target=&quot;_NEW&quot;&gt;\nhttp://imagehosting4u.com/2015/8/TheManFrom/1.html&lt;/a&gt; &lt;a href=&quot;\nhttp://imagehosting4u.com/2015/8/TheManFrom/2.html&quot; rel=&quot;nofollow&quot; target=&quot;_NEW&quot;&gt;\nhttp://imagehosting4u.com/2015/8/TheManFrom/2.html&lt;/a&gt; &lt;a href=&quot;\nhttp://imagehosting4u.com/2015/8/TheManFrom/3.html&quot; rel=&quot;nofollow&quot; target=&quot;_NEW&quot;&gt;\nhttp://imagehosting4u.com/2015/8/TheManFrom/3.html&lt;/a&gt; &lt;a href=&quot;\nhttp://imagehosting4u.com/2015/8/TheManFrom/4.html&quot; rel=&quot;nofollow&quot; target=&quot;_NEW&quot;&gt;\nhttp://imagehosting4u.com/2015/8/TheManFrom/4.html&lt;/a&gt; &lt;a href=&quot;\nhttp://imagehosting4u.com/2015/8/TheManFrom/5.html&quot; rel=&quot;nofollow&quot; target=&quot;_NEW&quot;&gt;\nhttp://imagehosting4u.com/2015/8/TheManFrom/5.html&lt;/a&gt; &lt;a href=&quot;\nhttp://imagehosting4u.com/2015/8/TheManFrom/6.html&quot; rel=&quot;nofollow&quot; target=&quot;_NEW&quot;&gt;\nhttp://imagehosting4u.com/2015/8/TheManFrom/6.html&lt;/a&gt; &lt;a href=&quot;\nhttp://imagehosting4u.com/2015/8/TheManFrom/7.html&quot; rel=&quot;nofollow&quot; target=&quot;_NEW&quot;&gt;\nhttp://imagehosting4u.com/2015/8/TheManFrom/7.html&lt;/a&gt; &lt;a href=&quot;\nhttp://imagehosting4u.com/2015/8/TheManFrom/8.html&quot; rel=&quot;nofollow&quot; target=&quot;_NEW&quot;&gt;\nhttp://imagehosting4u.com/2015/8/TheManFrom/8.html&lt;/a&gt; &lt;a href=&quot;\nhttp://imagehosting4u.com/2015/8/TheManFrom/9.html&quot; rel=&quot;nofollow&quot; target=&quot;_NEW&quot;&gt;\nhttp://imagehosting4u.com/2015/8/TheManFrom/9.html&lt;/a&gt; &lt;a href=&quot;\nhttp://imagehosting4u.com/2015/8/TheManFrom/10.html&quot; rel=&quot;nofollow&quot; target=&quot;_NEW&quot;&gt;\nhttp://imagehosting4u.com/2015/8/TheManFrom/10.html&lt;/a&gt;\n\nFormat                                   : Matroska\nFormat version                           : Version 4 / Version 2\nFile size                                : 694 MiB\nDuration                                 : 1h 49mn\nOverall bit rate                         : 886 Kbps\nMovie name                               : The Man From U.N.C.L.E 2015 English Movies RU HDCam XviD AAC New Source ~ rDX ~\n\nVideo\nID                                       : 1\nFormat                                   : MPEG-4 Visual\nFormat profile                           : Advanced Simple@L5\nFormat settings, BVOP                    : Yes\nFormat settings, QPel                    : No\nFormat settings, GMC                     : No warppoints\nFormat settings, Matrix                  : Default (MPEG)\nCodec ID                                 : V_MS/VFW/FOURCC / XVID\nCodec ID/Hint                            : XviD\nDuration                                 : 1h 49mn\nBit rate                                 : 773 Kbps\nWidth                                    : 720 pixels\nHeight                                   : 480 pixels\nDisplay aspect ratio                     : 3:2\nFrame rate mode                          : Constant\nFrame rate                               : 25.000 fps\nStandard                                 : NTSC\nColor space                              : YUV\nChroma subsampling                       : 4:2:0\nBit depth                                : 8 bits\nScan type                                : Progressive\nCompression mode                         : Lossy\nBits/(Pixel*Frame)                       : 0.089\nStream size                              : 605 MiB (87%)\nTitle                                    : ~ rDX ~\nWriting library                          : XviD 1.2.1 (UTC 2008-12-04)\nDefault                                  : Yes\nForced                                   : No\n\nAudio\nID                                       : 2\nFormat                                   : AC-3\nFormat/Info                              : Audio Coding 3\nMode extension                           : CM (complete main)\nFormat settings, Endianness              : Big\nCodec ID                                 : A_AC3\nDuration                                 : 1h 49mn\nBit rate mode                            : Constant\nBit rate                                 : 96.0 Kbps\nChannel(s)                               : 2 channels\nChannel positions                        : Front: L R\nSampling rate                            : 48.0 KHz\nBit depth                                : 16 bits\nCompression mode                         : Lossy\nStream size                              : 75.2 MiB (11%)\nTitle                                    : ~ rDX ~\nDefault                                  : Yes\nForced                                   : No","torrent":{"xt":"urn:btih:ecc0b5ee906a33571ad44f0a429bd8f8e8a50179","amp;dn":"The+Man+From+U.N.C.L.E+2015+Movies+RU+HDCam+XviD+New+%2BSample+%E2%98%BBrD","amp;tr":["udp%3A%2F%2Ftracker.openbittorrent.com%3A80","udp%3A%2F%2Fopen.demonii.com%3A1337","udp%3A%2F%2Ftracker.coppersurfer.tk%3A6969","udp%3A%2F%2Fexodus.desync.com%3A6969"],"infoHash":"ecc0b5ee906a33571ad44f0a429bd8f8e8a50179","infoHashBuffer":{"type":"Buffer","data":[236,192,181,238,144,106,51,87,26,212,79,10,66,155,216,248,232,165,1,121]},"announce":[],"urlList":[]}}